<?xml version="1.0" standalone="no"?>
<!DOCTYPE svg PUBLIC "-//W3C//DTD SVG 20010904//EN"
 "http://www.w3.org/TR/2001/REC-SVG-20010904/DTD/svg10.dtd">
<svg version="1.0" xmlns="http://www.w3.org/2000/svg"
 width="25" height="25" viewBox="0 0 25 25"
 preserveAspectRatio="xMidYMid meet">
<metadata>
Created by potrace 1.16, written by Peter Selinger 2001-2019
</metadata>
<g transform="translate(0.000000,1600.000000) scale(0.100000,-0.100000)"
fill="#000000" stroke="none">
<path d="M7640 8355 l-5855 -5855 5858 0 5857 0 0 5855 c0 3220 -1 5855 -3
5855 -1 0 -2637 -2635 -5857 -5855z m4860 285 l0 -3140 -1000 0 -1000 0 0
-1000 0 -1000 -1763 0 -1762 0 -28 168 c-98 601 -339 1178 -700 1676 l-79 109
3164 3164 c1739 1739 3164 3163 3165 3163 2 0 3 -1413 3 -3140z m-6837 -4278
c135 -264 242 -575 282 -819 l7 -43 -869 0 -868 0 615 615 615 615 72 -111
c39 -61 105 -177 146 -257z m6837 -362 l0 -500 -500 0 -500 0 0 500 0 500 500
0 500 0 0 -500z"/>
</g>
</svg>
